<svg id="Layer_2" data-name="Layer 2" xmlns="http://www.w3.org/2000/svg" viewBox="0 0 36.7 23"><defs><style>.cls-1{fill:#282828;}</style></defs><title>behance</title><g id="Behance"><path class="cls-1" d="M16.75,18.9a4.76,4.76,0,0,0,1.7-1.3,4.83,4.83,0,0,0,1-3.3,5.48,5.48,0,0,0-1-3.4c-1.2-1.5-3.1-2.3-5.9-2.4H1.65V30.8h10.2a15.82,15.82,0,0,0,3.2-.3,7.56,7.56,0,0,0,2.6-1.1,6.9,6.9,0,0,0,1.6-1.8,6.09,6.09,0,0,0,1-3.6,5.82,5.82,0,0,0-.9-3.3A5.75,5.75,0,0,0,16.75,18.9ZM6.25,12.5h4.9a10.06,10.06,0,0,1,2.7.3,2,2,0,0,1,1.2,2.1,2.26,2.26,0,0,1-.9,2,4.27,4.27,0,0,1-2.4.6H6.25v-5Zm7.8,14.1a4.74,4.74,0,0,1-2.3.4H6.25V21h5.6a5,5,0,0,1,2.3.4,2.26,2.26,0,0,1,1.4,2.4A3,3,0,0,1,14.05,26.6Z" transform="translate(-1.65 -8.5)"/><rect class="cls-1" x="23.5" y="1.1" width="9.7" height="2.8"/><path class="cls-1" d="M36.85,17.2a6.72,6.72,0,0,0-2.9-2.4A10.07,10.07,0,0,0,30,14a8.3,8.3,0,0,0-6,2.3,9,9,0,0,0-2.3,6.6c0,3.1.8,5.3,2.6,6.6a9,9,0,0,0,5.9,2,8.21,8.21,0,0,0,6.3-2.4,5,5,0,0,0,1.6-3h-4.5a3.53,3.53,0,0,1-.9,1.1,3.65,3.65,0,0,1-2.4.8,4.75,4.75,0,0,1-2.4-.6,4.06,4.06,0,0,1-1.8-3.5h12.2a30.22,30.22,0,0,0-.1-3.3A9.39,9.39,0,0,0,36.85,17.2ZM26.25,21a4.51,4.51,0,0,1,1.2-2.6,3.57,3.57,0,0,1,2.6-.9,3.92,3.92,0,0,1,2.6.9,3.76,3.76,0,0,1,1.2,2.6h-7.6Z" transform="translate(-1.65 -8.5)"/></g></svg>