<svg id="Layer_2" data-name="Layer 2" xmlns="http://www.w3.org/2000/svg" viewBox="0 0 36.46 23.16"><defs><style>.cls-1{fill:#282828;}</style></defs><title>insta</title><path class="cls-1" d="M16.48,18.8s3.42-.23,3.42-4.33-2.85-6-6.39-6H1.77V31H13.63s7.19,0.23,7.19-6.73C20.71,24.5,21,18.8,16.48,18.8ZM7,12.52h6.5s1.6,0,1.6,2.4-0.91,2.74-2.05,2.74H7V12.52Zm6.27,14.6H7v-6h6.62s2.4,0,2.4,3.08C15.91,26.78,14.2,27.13,13.29,27.13Z" transform="translate(-1.77 -8.42)"/><path class="cls-1" d="M30.29,14.24c-8.67,0-8.67,8.67-8.67,8.67S21,31.58,30.29,31.58c0,0,7.76.46,7.76-6h-4s0.11,2.4-3.65,2.4a3.73,3.73,0,0,1-4-4H38.16C38.16,24,39.53,14.24,30.29,14.24Zm3.54,6.84H26.41a4,4,0,0,1,4-3.54C33.94,17.54,33.82,21.08,33.82,21.08Z" transform="translate(-1.77 -8.42)"/><rect class="cls-1" x="23.73" y="1.37" width="9.35" height="2.28"/></svg>