<svg id="Layer_3" data-name="Layer 3" xmlns="http://www.w3.org/2000/svg" viewBox="0 0 37 33.5"><defs><style>.cls-1{fill:#282828;}</style></defs><title>linkedin</title><g id="LinkedIn"><rect class="cls-1" x="1" y="10.7" width="7.2" height="22.8"/><path class="cls-1" d="M29.3,13.75c-4.1,0-6.7,2.2-7.2,3.8v-3.6H14c0.1,1.9,0,22.8,0,22.8h8.1V24.45a5.55,5.55,0,0,1,.2-1.9,4.08,4.08,0,0,1,3.9-2.8c2.8,0,4.1,2.1,4.1,5.2v11.8h8.2V24.05C38.4,17,34.4,13.75,29.3,13.75Z" transform="translate(-1.5 -3.25)"/><path class="cls-1" d="M5.9,3.25c-2.7,0-4.4,1.7-4.4,4s1.7,3.9,4.3,3.9H5.9c2.7,0,4.4-1.7,4.4-4A4,4,0,0,0,5.9,3.25Z" transform="translate(-1.5 -3.25)"/></g></svg>