<?xml version="1.0" encoding="UTF-8" standalone="no"?>
<svg width="477px" height="247px" viewBox="0 0 477 247" version="1.1" xmlns="http://www.w3.org/2000/svg" xmlns:xlink="http://www.w3.org/1999/xlink">
    <g id="mit" fill="#000000">
        <path d="M391.7,246.8 L340,246.8 L340,79.1 L391.8,79.1 L391.8,246.8 L391.7,246.8 Z M221.4,246.8 L169.6,246.8 L169.6,0.4 L221.4,0.4 L221.4,246.8 L221.4,246.8 Z M51.7,246.8 L0,246.8 L0,0.4 L51.8,0.4 L51.8,246.8 L51.7,246.8 Z M136.2,168.1 L84.4,168.1 L84.4,0.4 L136.2,0.4 L136.2,168.1 L136.2,168.1 Z M305.9,49.6 L254.1,49.6 L254.1,0.5 L305.9,0.5 L305.9,49.6 L305.9,49.6 Z M340,0.4 L476.2,0.4 L476.2,49.5 L340,49.5 L340,0.4 L340,0.4 Z" id="Shape"></path>
        <polygon id="Path" fill-opacity="0.5" points="254.2 79.1 306 79.1 306 246.8 254.2 246.8"></polygon>
    </g>
</svg>