<?xml version="1.0" encoding="utf-8"?>
<!-- Generator: Adobe Illustrator 19.2.1, SVG Export Plug-In . SVG Version: 6.00 Build 0)  -->
<svg version="1.1" id="Layer_1" xmlns="http://www.w3.org/2000/svg" xmlns:xlink="http://www.w3.org/1999/xlink" x="0px" y="0px"
	 viewBox="0 0 181 11" style="enable-background:new 0 0 181 11;" xml:space="preserve">
<style type="text/css">
	.st0{fill-opacity:0.2;}
	.st1{fill-opacity:0.5;}
</style>
<title>senseable_logo_with_mit</title>
<desc>Created with Sketch.</desc>
<g id="Page-1">
	<g id="vis-population" transform="translate(-1244.000000, -22.000000)">
		<g id="senseable_logo_with_mit" transform="translate(1244.000000, 22.000000)">
			<g id="senseable_logo" transform="translate(31.000000, 0.000000)">
				<g id=":.::" transform="translate(133.891213, 0.733333)">
					<path id="Shape" d="M0,1.3c0-0.7,0.5-1.2,1.2-1.2c0.8,0,1.2,0.5,1.2,1.2S2,2.5,1.2,2.5C0.5,2.5,0,2,0,1.3L0,1.3z M0,8.1
						c0-0.7,0.5-1.2,1.2-1.2c0.8,0,1.2,0.5,1.2,1.2S2,9.2,1.2,9.2C0.5,9.3,0,8.8,0,8.1L0,8.1z"/>
					<path id="Shape_1_" d="M4.5,8.1c0-0.7,0.5-1.2,1.3-1.2C6.5,6.9,7,7.4,7,8.1S6.5,9.2,5.7,9.2C5,9.3,4.5,8.8,4.5,8.1L4.5,8.1z"/>
					<path id="Shape_2_" d="M8.9,1.3c0-0.7,0.5-1.2,1.2-1.2c0.8,0,1.2,0.5,1.2,1.2S10.8,2.5,10,2.5C9.4,2.5,8.9,2,8.9,1.3L8.9,1.3z
						 M8.9,8.1c0-0.7,0.5-1.2,1.2-1.2c0.8,0,1.2,0.5,1.2,1.2S10.8,9.3,10,9.3C9.4,9.3,8.9,8.8,8.9,8.1L8.9,8.1z"/>
					<path id="Shape_3_" d="M13.3,1.3c0-0.7,0.5-1.2,1.2-1.2c0.8,0,1.2,0.5,1.2,1.2s-0.5,1.2-1.3,1.2C13.8,2.5,13.3,2,13.3,1.3
						L13.3,1.3z M13.3,8.1c0-0.7,0.5-1.2,1.2-1.2c0.8,0,1.2,0.5,1.2,1.2s-0.5,1.2-1.3,1.2C13.8,9.3,13.3,8.8,13.3,8.1L13.3,8.1z"/>
				</g>
				<g id="senseable" transform="translate(0.627615, 0.733333)">
					<path id="Shape_4_" d="M0.1,6.5H2C2.1,7.3,2.4,8,3.7,8c0.9,0,1.5-0.5,1.5-1.2s-0.4-1-1.7-1.2c-2.2-0.3-3.1-1-3.1-2.7
						c0-1.5,1.2-2.6,3.2-2.6s3.1,0.9,3.3,2.6H5C4.8,2.1,4.4,1.7,3.5,1.7s-1.3,0.4-1.3,1c0,0.7,0.3,1,1.6,1.1C5.9,4.1,7,4.7,7,6.5
						C7,8,5.8,9.2,3.7,9.2C1.3,9.3,0.2,8.2,0.1,6.5L0.1,6.5z"/>
					<polygon id="Shape_5_" points="8.5,0.4 14.2,0.4 14.2,1.9 10.5,1.9 10.5,4 13.5,4 13.5,5.4 10.5,5.4 10.5,7.6 14.4,7.6 
						14.4,9.2 8.5,9.2 					"/>
					<polygon id="Shape_6_" points="15.7,0.4 18,0.4 21.4,6.2 21.4,0.4 23.1,0.4 23.1,9.2 21.2,9.2 17.5,2.9 17.5,9.2 15.7,9.2 
											"/>
					<path id="Shape_7_" d="M24.5,6.5h1.9C26.5,7.3,26.8,8,28.1,8c0.9,0,1.5-0.5,1.5-1.2s-0.4-1-1.7-1.2c-2.3-0.3-3.1-1-3.1-2.6
						c0-1.5,1.2-2.6,3.2-2.6s3.1,0.9,3.3,2.6h-1.8c-0.1-0.8-0.6-1.2-1.5-1.2s-1.3,0.4-1.3,1c0,0.7,0.3,1,1.6,1.1
						c2.1,0.3,3.2,0.9,3.2,2.6c0,1.5-1.2,2.8-3.4,2.8C25.7,9.3,24.6,8.2,24.5,6.5L24.5,6.5z"/>
					<polygon id="Shape_8_" points="32.9,0.4 38.6,0.4 38.6,1.9 34.9,1.9 34.9,4 37.9,4 37.9,5.4 34.9,5.4 34.9,7.6 38.8,7.6 
						38.8,9.2 32.9,9.2 					"/>
					<path id="Shape_9_" d="M42.4,0.4H45l2.9,8.8h-2.1l-0.6-2H42l-0.7,2h-1.8L42.4,0.4L42.4,0.4z M42.4,5.8h2.3l-1.2-3.7L42.4,5.8
						L42.4,5.8z"/>
					<path id="Shape_10_" d="M49,0.4h3.4c1.9,0,2.9,0.8,2.9,2.3v0.1c0,1-0.4,1.6-1.4,1.9c1.2,0.2,1.8,0.9,1.8,2.1v0.1
						c0,1.6-1,2.4-3.1,2.4H49L49,0.4L49,0.4L49,0.4z M52.1,4c1,0,1.3-0.4,1.3-1.1l0,0c0-0.7-0.4-1.1-1.3-1.1H51V4H52.1L52.1,4z
						 M52.3,7.8c1,0,1.4-0.4,1.4-1.2l0,0c0-0.8-0.4-1.2-1.5-1.2H51v2.5h1.3V7.8z"/>
					<polygon id="Shape_11_" points="57.1,0.4 59.1,0.4 59.1,7.6 62.7,7.6 62.7,9.1 57.1,9.1 					"/>
					<polygon id="Shape_12_" points="63.9,0.4 69.6,0.4 69.6,1.9 65.9,1.9 65.9,4 68.9,4 68.9,5.4 65.9,5.4 65.9,7.6 69.9,7.6 
						69.9,9.2 63.9,9.2 					"/>
					<path id="Shape_13_" d="M73.5,4.8L73.5,4.8c0-2.7,1.8-4.5,4.3-4.5c2.1,0,3.7,1,3.9,3.2h-2.1c-0.1-1-0.7-1.6-1.8-1.6
						c-1.4,0-2.3,1.1-2.3,2.9v0.1c0,1.8,0.8,2.9,2.3,2.9c1.1,0,1.8-0.6,2-1.7h2c-0.2,2.2-1.8,3.3-4,3.3C75.1,9.3,73.5,7.6,73.5,4.8
						L73.5,4.8z"/>
					<polygon id="Shape_14_" points="83.2,0.4 85.2,0.4 85.2,9.2 83.2,9.2 					"/>
					<polygon id="Shape_15_" points="88.8,2 86.5,2 86.5,0.4 93.2,0.4 93.2,1.9 90.9,1.9 90.9,9.2 88.9,9.2 88.9,2 					"/>
					<polygon id="Shape_16_" points="96.7,5.4 93.7,0.4 95.9,0.4 97.7,3.8 99.4,0.4 101.3,0.4 98.6,5.4 98.6,9.2 96.7,9.2 					"/>
					<polygon id="Shape_17_" points="105.2,0.4 107.2,0.4 107.2,7.6 110.8,7.6 110.8,9.1 105.2,9.1 					"/>
					<path id="Shape_18_" d="M114.3,0.4h2.6l2.9,8.8h-2.1l-0.6-2H114l-0.6,2h-1.8L114.3,0.4L114.3,0.4z M114.4,5.8h2.3L115.5,2
						L114.4,5.8L114.4,5.8z"/>
					<path id="Shape_19_" d="M121,0.4h3.4c1.9,0,2.9,0.8,2.9,2.3v0.1c0,1-0.4,1.6-1.4,1.9c1.2,0.2,1.8,0.9,1.8,2.1v0.1
						c0,1.6-1,2.4-3.1,2.4H121V0.4L121,0.4L121,0.4z M124.1,4c1,0,1.3-0.4,1.3-1.1l0,0c0-0.7-0.4-1.1-1.3-1.1h-1.2V4H124.1L124.1,4z
						 M124.3,7.8c1,0,1.4-0.4,1.4-1.2l0,0c0-0.8-0.4-1.2-1.5-1.2H123v2.5h1.3V7.8z"/>
				</g>
			</g>
			<g id="line" transform="translate(25.000000, 2.000000)">
				<rect id="Rectangle-path" y="0.2" class="st0" width="0.7" height="6.1"/>
			</g>
			<g id="mit">
				<polygon id="Shape_20_" points="16.8,10.4 14.6,10.4 14.6,3.5 16.8,3.5 				"/>
				<rect id="Rectangle-path_1_" x="7.3" y="0.3" width="2.2" height="10.1"/>
				<polygon id="Shape_21_" points="2.4,10.4 0.2,10.4 0.2,0.3 2.4,0.3 				"/>
				<rect id="Rectangle-path_2_" x="3.7" y="0.3" width="2.2" height="6.9"/>
				<rect id="Rectangle-path_3_" x="11" y="0.3" width="2.2" height="2"/>
				<rect id="Rectangle-path_4_" x="11" y="3.5" class="st1" width="2.2" height="6.9"/>
				<rect id="Rectangle-path_5_" x="14.6" y="0.3" width="5.8" height="2"/>
			</g>
		</g>
	</g>
</g>
</svg>
