<?xml version="1.0" encoding="utf-8"?>
<!-- Generator: Adobe Illustrator 19.2.1, SVG Export Plug-In . SVG Version: 6.00 Build 0)  -->
<svg version="1.1" id="Layer_1" xmlns="http://www.w3.org/2000/svg" xmlns:xlink="http://www.w3.org/1999/xlink" x="0px" y="0px"
	 viewBox="0 0 181 11" style="enable-background:new 0 0 181 11;" xml:space="preserve">
<style type="text/css">
	.st0{fill:#7C7C7C;}
	.st1{fill:#FFFFFF;}
</style>
<rect x="11" y="3.5" class="st0" width="2.2" height="6.9"/>
<rect x="25" y="2.2" class="st0" width="0.7" height="6.1"/>
<title>senseable_logo_with_mit</title>
<desc>Created with Sketch.</desc>
<path id="Shape" class="st1" d="M164.9,2c0-0.7,0.5-1.2,1.2-1.2c0.8,0,1.2,0.5,1.2,1.2s-0.4,1.2-1.2,1.2
	C165.4,3.2,164.9,2.7,164.9,2L164.9,2z M164.9,8.8c0-0.7,0.5-1.2,1.2-1.2c0.8,0,1.2,0.5,1.2,1.2s-0.4,1.1-1.2,1.1
	C165.4,10,164.9,9.5,164.9,8.8L164.9,8.8z"/>
<path id="Shape_1_" class="st1" d="M169.4,8.8c0-0.7,0.5-1.2,1.3-1.2c0.7,0,1.2,0.5,1.2,1.2s-0.5,1.1-1.3,1.1
	C169.9,10,169.4,9.5,169.4,8.8L169.4,8.8z"/>
<path id="Shape_2_" class="st1" d="M173.8,2c0-0.7,0.5-1.2,1.2-1.2c0.8,0,1.2,0.5,1.2,1.2s-0.5,1.2-1.3,1.2
	C174.3,3.2,173.8,2.7,173.8,2L173.8,2z M173.8,8.8c0-0.7,0.5-1.2,1.2-1.2c0.8,0,1.2,0.5,1.2,1.2s-0.5,1.2-1.3,1.2
	C174.3,10,173.8,9.5,173.8,8.8L173.8,8.8z"/>
<path id="Shape_3_" class="st1" d="M178.2,2c0-0.7,0.5-1.2,1.2-1.2c0.8,0,1.2,0.5,1.2,1.2s-0.5,1.2-1.3,1.2
	C178.7,3.2,178.2,2.7,178.2,2L178.2,2z M178.2,8.8c0-0.7,0.5-1.2,1.2-1.2c0.8,0,1.2,0.5,1.2,1.2s-0.5,1.2-1.3,1.2
	C178.7,10,178.2,9.5,178.2,8.8L178.2,8.8z"/>
<path id="Shape_4_" class="st1" d="M31.7,7.2h1.9C33.7,8,34,8.7,35.3,8.7c0.9,0,1.5-0.5,1.5-1.2s-0.4-1-1.7-1.2
	C32.9,6,32,5.3,32,3.6C32,2.1,33.2,1,35.2,1s3.1,0.9,3.3,2.6h-1.9c-0.2-0.8-0.6-1.2-1.5-1.2s-1.3,0.4-1.3,1c0,0.7,0.3,1,1.6,1.1
	c2.1,0.3,3.2,0.9,3.2,2.7c0,1.5-1.2,2.7-3.3,2.7C32.9,10,31.8,8.9,31.7,7.2L31.7,7.2z"/>
<polygon id="Shape_5_" class="st1" points="40.1,1.1 45.8,1.1 45.8,2.6 42.1,2.6 42.1,4.7 45.1,4.7 45.1,6.1 42.1,6.1 42.1,8.3 
	46,8.3 46,9.9 40.1,9.9 "/>
<polygon id="Shape_6_" class="st1" points="47.3,1.1 49.6,1.1 53,6.9 53,1.1 54.7,1.1 54.7,9.9 52.8,9.9 49.1,3.6 49.1,9.9 
	47.3,9.9 "/>
<path id="Shape_7_" class="st1" d="M56.1,7.2H58c0.1,0.8,0.4,1.5,1.7,1.5c0.9,0,1.5-0.5,1.5-1.2s-0.4-1-1.7-1.2
	c-2.3-0.3-3.1-1-3.1-2.6c0-1.5,1.2-2.6,3.2-2.6s3.1,0.9,3.3,2.6h-1.8c-0.1-0.8-0.6-1.2-1.5-1.2s-1.3,0.4-1.3,1c0,0.7,0.3,1,1.6,1.1
	c2.1,0.3,3.2,0.9,3.2,2.6c0,1.5-1.2,2.8-3.4,2.8C57.3,10,56.2,8.9,56.1,7.2L56.1,7.2z"/>
<polygon id="Shape_8_" class="st1" points="64.5,1.1 70.2,1.1 70.2,2.6 66.5,2.6 66.5,4.7 69.5,4.7 69.5,6.1 66.5,6.1 66.5,8.3 
	70.4,8.3 70.4,9.9 64.5,9.9 "/>
<path id="Shape_9_" class="st1" d="M74,1.1h2.6l2.9,8.8h-2.1l-0.6-2h-3.2l-0.7,2h-1.8L74,1.1L74,1.1z M74,6.5h2.3l-1.2-3.7L74,6.5
	L74,6.5z"/>
<path id="Shape_10_" class="st1" d="M80.6,1.1H84c1.9,0,2.9,0.8,2.9,2.3v0.1c0,1-0.4,1.6-1.4,1.9c1.2,0.2,1.8,0.9,1.8,2.1v0.1
	c0,1.6-1,2.4-3.1,2.4h-3.6L80.6,1.1L80.6,1.1L80.6,1.1z M83.7,4.7c1,0,1.3-0.4,1.3-1.1l0,0c0-0.7-0.4-1.1-1.3-1.1h-1.1v2.2H83.7
	L83.7,4.7z M83.9,8.5c1,0,1.4-0.4,1.4-1.2l0,0c0-0.8-0.4-1.2-1.5-1.2h-1.2v2.5h1.3C83.9,8.6,83.9,8.5,83.9,8.5z"/>
<polygon id="Shape_11_" class="st1" points="88.7,1.1 90.7,1.1 90.7,8.3 94.3,8.3 94.3,9.8 88.7,9.8 "/>
<polygon id="Shape_12_" class="st1" points="95.5,1.1 101.2,1.1 101.2,2.6 97.5,2.6 97.5,4.7 100.5,4.7 100.5,6.1 97.5,6.1 
	97.5,8.3 101.5,8.3 101.5,9.9 95.5,9.9 "/>
<path id="Shape_13_" class="st1" d="M105.1,5.5L105.1,5.5c0-2.7,1.8-4.5,4.3-4.5c2.1,0,3.7,1,3.9,3.2h-2.1c-0.1-1-0.7-1.6-1.8-1.6
	c-1.4,0-2.3,1.1-2.3,2.9v0.1c0,1.8,0.8,2.9,2.3,2.9c1.1,0,1.8-0.6,2-1.7h2c-0.2,2.2-1.8,3.3-4,3.3C106.7,10,105.1,8.3,105.1,5.5
	L105.1,5.5z"/>
<polygon id="Shape_14_" class="st1" points="114.8,1.1 116.8,1.1 116.8,9.9 114.8,9.9 "/>
<polygon id="Shape_15_" class="st1" points="120.4,2.7 118.1,2.7 118.1,1.1 124.8,1.1 124.8,2.6 122.5,2.6 122.5,9.9 120.5,9.9 
	120.5,2.7 "/>
<polygon id="Shape_16_" class="st1" points="128.3,6.1 125.3,1.1 127.5,1.1 129.3,4.5 131,1.1 132.9,1.1 130.2,6.1 130.2,9.9 
	128.3,9.9 "/>
<polygon id="Shape_17_" class="st1" points="136.8,1.1 138.8,1.1 138.8,8.3 142.4,8.3 142.4,9.8 136.8,9.8 "/>
<path id="Shape_18_" class="st1" d="M145.9,1.1h2.6l2.9,8.8h-2.1l-0.6-2h-3.1l-0.6,2h-1.8L145.9,1.1L145.9,1.1z M146,6.5h2.3
	l-1.2-3.8L146,6.5L146,6.5z"/>
<path id="Shape_19_" class="st1" d="M152.6,1.1h3.4c1.9,0,2.9,0.8,2.9,2.3v0.1c0,1-0.4,1.6-1.4,1.9c1.2,0.2,1.8,0.9,1.8,2.1v0.1
	c0,1.6-1,2.4-3.1,2.4h-3.6L152.6,1.1L152.6,1.1L152.6,1.1z M155.7,4.7c1,0,1.3-0.4,1.3-1.1l0,0c0-0.7-0.4-1.1-1.3-1.1h-1.2v2.2
	H155.7L155.7,4.7z M155.9,8.5c1,0,1.4-0.4,1.4-1.2l0,0c0-0.8-0.4-1.2-1.5-1.2h-1.2v2.5h1.3V8.5z"/>
<polygon id="Shape_20_" class="st1" points="16.8,10.4 14.6,10.4 14.6,3.5 16.8,3.5 "/>
<rect id="Rectangle-path_1_" x="7.3" y="0.3" class="st1" width="2.2" height="10.1"/>
<polygon id="Shape_21_" class="st1" points="2.4,10.4 0.2,10.4 0.2,0.3 2.4,0.3 "/>
<rect id="Rectangle-path_2_" x="3.7" y="0.3" class="st1" width="2.2" height="6.9"/>
<rect id="Rectangle-path_3_" x="11" y="0.3" class="st1" width="2.2" height="2"/>
<rect id="Rectangle-path_5_" x="14.6" y="0.3" class="st1" width="5.8" height="2"/>
</svg>
