<?xml version="1.0" encoding="utf-8"?>
<!-- Generator: Adobe Illustrator 19.2.1, SVG Export Plug-In . SVG Version: 6.00 Build 0)  -->
<svg version="1.1" id="Layer_1" xmlns="http://www.w3.org/2000/svg" xmlns:xlink="http://www.w3.org/1999/xlink" x="0px" y="0px"
	 viewBox="0 0 207.2 15.2" style="enable-background:new 0 0 207.2 15.2;" xml:space="preserve">
<style type="text/css">
	.st0{fill:#FFFFFF;}
</style>
<g>
	<path class="st0" d="M183.5,2.8c0-1,0.7-1.6,1.7-1.6c1.1,0,1.7,0.7,1.7,1.6s-0.7,1.6-1.8,1.6C184.2,4.4,183.5,3.7,183.5,2.8z
		 M183.5,12c0-1,0.7-1.6,1.7-1.6c1.1,0,1.7,0.7,1.7,1.6c0,0.9-0.7,1.6-1.8,1.6C184.2,13.7,183.5,13,183.5,12z"/>
	<path class="st0" d="M189.6,12c0-0.9,0.7-1.6,1.8-1.6c1,0,1.7,0.7,1.7,1.6c0,0.9-0.7,1.6-1.8,1.6C190.3,13.7,189.6,13,189.6,12z"/>
	<path class="st0" d="M195.7,2.8c0-1,0.7-1.6,1.7-1.6c1.1,0,1.7,0.7,1.7,1.6s-0.7,1.6-1.8,1.6C196.4,4.4,195.7,3.7,195.7,2.8z
		 M195.7,12c0-1,0.7-1.6,1.7-1.6c1.1,0,1.7,0.7,1.7,1.6c0,0.9-0.7,1.6-1.8,1.6C196.4,13.7,195.7,13,195.7,12z"/>
	<path class="st0" d="M201.7,2.8c0-1,0.7-1.6,1.7-1.6c1.1,0,1.7,0.7,1.7,1.6s-0.7,1.6-1.8,1.6C202.4,4.4,201.7,3.7,201.7,2.8z
		 M201.7,12c0-1,0.7-1.6,1.7-1.6c1.1,0,1.7,0.7,1.7,1.6c0,0.9-0.7,1.6-1.8,1.6C202.4,13.7,201.7,13,201.7,12z"/>
</g>
<g>
	<path class="st0" d="M1.6,9.8h2.6c0.1,1.1,0.6,2,2.3,2c1.2,0,2-0.7,2-1.6c0-1-0.5-1.3-2.3-1.6C3.2,8.2,2,7.3,2,4.9
		c0-2,1.7-3.6,4.4-3.6s4.3,1.2,4.5,3.6H8.3c-0.2-1.1-0.8-1.6-2-1.6S4.5,3.9,4.5,4.7c0,0.9,0.4,1.3,2.2,1.5c2.9,0.4,4.4,1.2,4.4,3.6
		c0,2.1-1.7,3.8-4.6,3.8C3.3,13.7,1.8,12.2,1.6,9.8z"/>
	<path class="st0" d="M13.1,1.5h7.8v2.1h-5.1v2.8h4.1v2h-4.1v3h5.4v2.1h-8.1V1.5z"/>
	<path class="st0" d="M23,1.5h3.1l4.6,7.9V1.5h2.4v12h-2.7l-5-8.5v8.5H23V1.5z"/>
	<path class="st0" d="M35,9.8h2.6c0.1,1.1,0.6,2,2.3,2c1.2,0,2-0.7,2-1.6c0-1-0.5-1.3-2.3-1.6c-3.1-0.4-4.3-1.3-4.3-3.6
		c0-2,1.7-3.6,4.4-3.6S44,2.6,44.2,5h-2.5c-0.2-1.1-0.8-1.6-2-1.6S37.9,4,37.9,4.8c0,0.9,0.4,1.3,2.2,1.5c2.9,0.4,4.4,1.2,4.4,3.6
		c0,2.1-1.7,3.8-4.6,3.8C36.6,13.7,35.1,12.2,35,9.8z"/>
	<path class="st0" d="M46.4,1.5h7.8v2.1h-5.1v2.8h4.1v2h-4.1v3h5.4v2.1h-8.1V1.5z"/>
	<path class="st0" d="M59.4,1.5h3.5l3.9,12H64l-0.8-2.7h-4.3L58,13.5h-2.5L59.4,1.5z M59.4,8.9h3.2L61,3.8L59.4,8.9z"/>
	<path class="st0" d="M68.4,1.5h4.7c2.6,0,4,1.1,4,3.1v0.1c0,1.3-0.6,2.2-1.9,2.6c1.6,0.3,2.4,1.2,2.4,2.8v0.1
		c0,2.2-1.4,3.3-4.2,3.3h-4.9L68.4,1.5L68.4,1.5z M72.7,6.5C74,6.5,74.5,6,74.5,5V4.9c0-1-0.6-1.5-1.8-1.5h-1.6v3.1H72.7z
		 M72.9,11.6c1.3,0,1.9-0.6,1.9-1.7l0,0c0-1.1-0.6-1.7-2.1-1.7H71v3.4H72.9z"/>
	<path class="st0" d="M79.5,1.5h2.7v9.8h4.9v2.1h-7.6V1.5z"/>
	<path class="st0" d="M88.8,1.5h7.8v2.1h-5.1v2.8h4.1v2h-4.1v3h5.4v2.1h-8.1C88.8,13.5,88.8,1.5,88.8,1.5z"/>
	<path class="st0" d="M101.9,7.6L101.9,7.6c0-3.7,2.5-6.2,5.9-6.2c2.9,0,5,1.4,5.3,4.4h-2.8c-0.2-1.4-1-2.2-2.5-2.2
		c-1.9,0-3.1,1.5-3.1,4v0.1c0,2.5,1.1,3.9,3.1,3.9c1.5,0,2.5-0.8,2.7-2.3h2.7c-0.3,3-2.4,4.5-5.4,4.5C104,13.7,101.9,11.3,101.9,7.6
		z"/>
	<path class="st0" d="M115.1,1.5h2.7v12h-2.7V1.5z"/>
	<path class="st0" d="M122.8,3.7h-3.2V1.5h9.2v2.1h-3.2v9.9h-2.7V3.7H122.8z"/>
	<path class="st0" d="M133.5,8.4l-4-6.8h3l2.4,4.6l2.4-4.6h2.6l-3.7,6.8v5.2h-2.7V8.4z"/>
	<path class="st0" d="M145.2,1.5h2.7v9.8h4.9v2.1h-7.6L145.2,1.5L145.2,1.5z"/>
	<path class="st0" d="M157.6,1.5h3.5l3.9,12h-2.8l-0.8-2.7h-4.3l-0.8,2.7h-2.5L157.6,1.5z M157.7,8.9h3.2l-1.6-5.2L157.7,8.9z"/>
	<path class="st0" d="M166.7,1.5h4.7c2.6,0,4,1.1,4,3.1v0.1c0,1.3-0.6,2.2-1.9,2.6c1.6,0.3,2.4,1.2,2.4,2.8v0.1
		c0,2.2-1.4,3.3-4.2,3.3h-4.9v-12H166.7z M171,6.5c1.3,0,1.8-0.5,1.8-1.5V4.9c0-1-0.6-1.5-1.8-1.5h-1.6v3.1H171z M171.2,11.6
		c1.3,0,1.9-0.6,1.9-1.7l0,0c0-1.1-0.6-1.7-2.1-1.7h-1.7v3.4H171.2z"/>
</g>
</svg>
