<svg id="Layer_4" data-name="Layer 4" xmlns="http://www.w3.org/2000/svg" viewBox="0 0 37.5 31.4"><defs><style>.cls-1{fill:#282828;}</style></defs><title>twitter</title><path id="Twitter" class="cls-1" d="M37.45,4.9a13.91,13.91,0,0,1-4.9,1.9,7.71,7.71,0,0,0-5.6-2.5,7.81,7.81,0,0,0-7.7,7.9,11,11,0,0,0,.2,1.8A21.65,21.65,0,0,1,3.65,5.8a7.67,7.67,0,0,0-1,4A8.33,8.33,0,0,0,6,16.4a7.11,7.11,0,0,1-3.5-1v0.1a7.75,7.75,0,0,0,6.2,7.7,6.45,6.45,0,0,1-2,.3,6.15,6.15,0,0,1-1.4-.1,7.84,7.84,0,0,0,7.2,5.5A15.09,15.09,0,0,1,3,32.3a10.87,10.87,0,0,1-1.8-.1A21.54,21.54,0,0,0,13,35.7c14.1,0,21.9-12,21.9-22.4v-1a14.87,14.87,0,0,0,3.8-4.1,13.72,13.72,0,0,1-4.4,1.2A9.84,9.84,0,0,0,37.45,4.9Z" transform="translate(-1.25 -4.3)"/></svg>