<svg width="88" height="88" viewBox="0 0 88 88" fill="none" xmlns="http://www.w3.org/2000/svg">
<path d="M43.8669 31.7765C41.2836 27.2886 37.2902 23.7796 32.5073 21.7947C27.7244 19.8099 22.4199 19.4605 17.418 20.8007C12.4161 22.1409 7.99686 25.0957 4.84709 29.206C1.69732 33.3163 -0.00662614 38.3518 1.93512e-05 43.5302C0.00666484 48.7085 1.72353 53.7397 4.88384 57.8418C8.04415 61.944 12.4709 64.8875 17.4763 66.2149C22.4816 67.5422 27.7852 67.1792 32.563 65.1821C37.3408 63.185 41.3251 59.6657 43.8969 55.1711L23.5 43.5L43.8669 31.7765Z" fill="black"/>
<path fill-rule="evenodd" clip-rule="evenodd" d="M3.11328 31.8119C7.16766 24.7536 14.7812 20 23.5051 20C32.2253 20 39.8362 24.7497 43.8918 31.8031C40.4487 37.9019 34.4387 42.3096 27.3618 43.5C34.4387 44.6904 40.4487 49.0981 43.8918 55.1969C39.8362 62.2503 32.2253 67 23.5051 67C14.7812 67 7.16766 62.2464 3.11328 55.1881C6.55721 49.0939 12.5648 44.6899 19.6384 43.5C12.5648 42.3101 6.55721 37.9061 3.11328 31.8119Z" fill="black"/>
<path fill-rule="evenodd" clip-rule="evenodd" d="M65 20.0052C64.8338 20.0017 64.6671 20 64.5 20C51.5213 20 41 30.5213 41 43.5C41 56.4787 51.5213 67 64.5 67C77.3116 67 87.7287 56.7478 87.9948 44H65V20.0052Z" fill="black"/>
</svg>
