<svg id="Layer_1" data-name="Layer 1" xmlns="http://www.w3.org/2000/svg" viewBox="0 0 355.95 189"><defs><style>.cls-1{fill:#de1400;}.cls-2{fill:#0067c3;}.cls-3{font-size:16px;fill:#fff;font-family:Roboto;}</style></defs><title>back</title><path class="cls-1" d="M51.87,46.77h89.24a7,7,0,0,1,7,7V85.6a6,6,0,0,1-6,6H51.87a6,6,0,0,1-6-6V52.77A6,6,0,0,1,51.87,46.77Z"/><path class="cls-1" d="M263.65,145.63a42.4,42.4,0,0,0,4.2.64,43.1,43.1,0,0,0,8.65,0c1.4-.14,2.82-0.36,4.2-0.64,1-.21,2.06-0.48,3.08-0.77v-8.72a44.87,44.87,0,0,1-23.2,0v8.72C261.58,145.15,262.61,145.41,263.65,145.63Z"/><path class="cls-1" d="M281.23,148.24c-1.47.3-3,.53-4.46,0.68a45.73,45.73,0,0,1-9.19,0c-1.49-.15-3-0.38-4.46-0.68-0.85-.17-1.7-0.38-2.54-0.61v1.08a10.9,10.9,0,0,0,8.44,10.6,3.28,3.28,0,1,0,6.33,0,10.9,10.9,0,0,0,8.44-10.6v-1.08C282.93,147.86,282.08,148.07,281.23,148.24Z"/><path class="cls-1" d="M254.39,91.58a6.53,6.53,0,1,0,0,13.07h6.53V98.11A6.54,6.54,0,0,0,254.39,91.58Z"/><path class="cls-1" d="M289.95,91.58a6.54,6.54,0,0,0-6.53,6.53v6.53h6.53A6.53,6.53,0,1,0,289.95,91.58Z"/><path class="cls-1" d="M272.17,39.31A1.34,1.34,0,0,1,270.83,38V26.1a1.34,1.34,0,1,1,2.67,0V38A1.34,1.34,0,0,1,272.17,39.31Z"/><path class="cls-1" d="M308.1,54.63a1.34,1.34,0,0,1-.94-2.28l8.4-8.4a1.34,1.34,0,0,1,1.89,1.89l-8.4,8.4A1.33,1.33,0,0,1,308.1,54.63Z"/><path class="cls-1" d="M236.24,54.63a1.33,1.33,0,0,1-.94-0.39l-8.4-8.4a1.34,1.34,0,1,1,1.89-1.89l8.4,8.4A1.34,1.34,0,0,1,236.24,54.63Z"/><path class="cls-2" d="M289.95,107.32h-6.53v26.14h0a41.55,41.55,0,1,0-2.49.61,1.3,1.3,0,0,1-.18-0.63V107.32H263.59v15.14a1.34,1.34,0,1,1-2.67,0V107.32h-6.53a9.2,9.2,0,1,1,9.2-9.2v6.53h17.15V98.11A9.2,9.2,0,1,1,289.95,107.32ZM272.17,58.07a34.68,34.68,0,0,0-34.64,34.64,1.34,1.34,0,1,1-2.67,0A37.36,37.36,0,0,1,272.17,55.4,1.34,1.34,0,0,1,272.17,58.07Z"/><rect class="cls-2" x="177.95" y="96.39" width="18" height="4.5"/><polyline class="cls-2" points="191.71 90.15 200.2 98.64 191.71 107.12"/><path class="cls-2" d="M112.24,129.38a11.82,11.82,0,1,0-11.82-11.82A11.77,11.77,0,0,0,112.24,129.38Zm-31.51,0a11.82,11.82,0,1,0-11.82-11.82A11.77,11.77,0,0,0,80.73,129.38Zm0,7.88c-9.18,0-27.57,4.61-27.57,13.78v9.85H108.3V151C108.3,141.86,89.91,137.25,80.73,137.25Zm31.51,0c-1.14,0-2.44.08-3.82,0.2,4.57,3.31,7.76,7.76,7.76,13.59v9.85h23.63V151C139.81,141.86,121.42,137.25,112.24,137.25Z"/><text class="cls-3" transform="translate(59.06 73.99)">Re<tspan x="19.02" y="0">f</tspan><tspan x="24.64" y="0">e</tspan><tspan x="33.1" y="0">r</tspan><tspan x="38.87" y="0">ence!</tspan></text><polyline class="cls-1" points="103.11 91.08 96.51 97.71 89.86 91.08"/></svg>